# xmcd
#
# Track frame offsets:
#	150
#	13563
#	30343
#	49265
#	65543
#	91488
#	111888
#	125395
#	146513
#	160790
#	175805
#	195860
#	220475
#	277342
#
# Disc length: 3864 seconds
#
# Revision: 1
# Processed by: cddbd v1.5.1PL0 Copyright (c) Steve Scherf et al.
# Submitted via: audiograbber 1.83.01
#
DISCID=c40f160e
DTITLE=Gashouse Dave and The Hardtails - Full Service - CD 1
DYEAR=2004
DGENRE=Blues
TTITLE0=Retrorocket
TTITLE1=Moulin Blues
TTITLE2=Girl In A Cotton Dress
TTITLE3=My Last Lap Dance
TTITLE4=A Very Cold Moon
TTITLE5=Airmobile
TTITLE6=Way Too Cool
TTITLE7=The New Cuba
TTITLE8=Shut Thy Mouth
TTITLE9=Full Service
TTITLE10=Paprika Shaker
TTITLE11=Atomic Reactor
TTITLE12=Eternity
TTITLE13=Santa's Wild Ride (Bonus Track)
EXTD=2nd disk is called LIVE IN PARIS
EXTT0=
EXTT1=
EXTT2=
EXTT3=
EXTT4=
EXTT5=
EXTT6=
EXTT7=
EXTT8=
EXTT9=
EXTT10=
EXTT11=
EXTT12=
EXTT13=
PLAYORDER=
